<svg xmlns="http://www.w3.org/2000/svg" viewBox="0 0 120 120" width="120" height="120">
  <defs>
    <linearGradient id="sh" x1="0" y1="0" x2="0.3" y2="1">
      <stop offset="0" stop-color="#4fd1ff"/>
      <stop offset="0.55" stop-color="#1a9be6"/>
      <stop offset="1" stop-color="#0b4f8f"/>
    </linearGradient>
    <linearGradient id="shi" x1="0" y1="0" x2="1" y2="1">
      <stop offset="0" stop-color="#ffffff" stop-opacity="0.55"/>
      <stop offset="0.5" stop-color="#ffffff" stop-opacity="0"/>
    </linearGradient>
    <linearGradient id="ves" x1="0" y1="0" x2="1" y2="0">
      <stop offset="0" stop-color="#ffe082"/>
      <stop offset="0.45" stop-color="#ffb300"/>
      <stop offset="1" stop-color="#e65100"/>
    </linearGradient>
    <linearGradient id="flame" x1="0" y1="1" x2="0" y2="0">
      <stop offset="0" stop-color="#ff3d00"/>
      <stop offset="0.6" stop-color="#ff9100"/>
      <stop offset="1" stop-color="#ffea00"/>
    </linearGradient>
    <filter id="ds" x="-20%" y="-20%" width="140%" height="140%">
      <feDropShadow dx="0" dy="4" stdDeviation="3" flood-color="#000" flood-opacity="0.35"/>
    </filter>
  </defs>
  <path d="M60 6 L104 22 V58 C104 84 84 104 60 114 C36 104 16 84 16 58 V22 Z" fill="url(#sh)" stroke="#063a6b" stroke-width="3" filter="url(#ds)"/>
  <path d="M60 6 L104 22 V58 C104 84 84 104 60 114 C36 104 16 84 16 58 V22 Z" fill="url(#shi)"/>
  <rect x="42" y="36" width="36" height="52" rx="18" fill="url(#ves)" stroke="#7f2d00" stroke-width="2.5"/>
  <rect x="47" y="40" width="7" height="40" rx="3.5" fill="#fff" opacity="0.35"/>
  <rect x="56" y="24" width="8" height="14" fill="#90a4ae" stroke="#37474f" stroke-width="1.5"/>
  <path d="M60 14 C66 20 68 26 60 30 C52 26 54 20 60 14 Z" fill="url(#flame)"/>
  <path d="M38 64 H28 M82 64 H92" stroke="#eceff1" stroke-width="4" stroke-linecap="round"/>
  <circle cx="60" cy="98" r="9" fill="#2ecc71" stroke="#0b5e2e" stroke-width="2"/>
  <path d="M55 98 L59 102 L66 94" fill="none" stroke="#fff" stroke-width="2.5" stroke-linecap="round" stroke-linejoin="round"/>
</svg>
